<svg width="32" height="25" viewBox="0 0 32 25" fill="none" xmlns="http://www.w3.org/2000/svg">
<path fill-rule="evenodd" clip-rule="evenodd" d="M5.0286 2.67857C3.76623 2.67857 2.74287 3.67793 2.74287 4.91071V15.7824C2.74287 17.0152 3.76623 18.0145 5.0286 18.0145H5.05048V9.21762C5.05048 6.50551 7.30186 4.3069 10.0791 4.3069H24.122C23.8524 3.36748 22.969 2.67857 21.9209 2.67857H5.0286ZM26.9119 4.3069C26.6071 1.87965 24.4888 0 21.9209 0H5.0286C2.25138 0 0 2.1986 0 4.91071V15.7824C0 18.4945 2.25138 20.6931 5.0286 20.6931H5.08811C5.39286 23.1203 7.5112 25 10.0791 25H26.9714C29.7486 25 32 22.8014 32 20.0893V9.21762C32 6.50551 29.7486 4.3069 26.9714 4.3069H26.9119ZM10.0791 6.98548C8.81671 6.98548 7.79335 7.98484 7.79335 9.21762V20.0893C7.79335 21.3221 8.81671 22.3214 10.0791 22.3214H26.9714C28.2338 22.3214 29.2571 21.3221 29.2571 20.0893V9.21762C29.2571 7.98484 28.2338 6.98548 26.9714 6.98548H10.0791Z" fill="#3E3D78"/>
</svg>
