<svg width="30" height="26" viewBox="0 0 30 26" fill="none" xmlns="http://www.w3.org/2000/svg">
<mask id="path-1-inside-1_10_132" fill="white">
<path fill-rule="evenodd" clip-rule="evenodd" d="M11.8868 25.3788L11.8687 25.3981L0 13.5294L6.36424 6.71395L11.9407 12.2905L23.4018 0L30 6.58922L12.1932 25.6847L11.8868 25.3788Z"/>
</mask>
<path fill-rule="evenodd" clip-rule="evenodd" d="M11.8868 25.3788L11.8687 25.3981L0 13.5294L6.36424 6.71395L11.9407 12.2905L23.4018 0L30 6.58922L12.1932 25.6847L11.8868 25.3788Z" fill="white"/>
<path d="M11.8868 25.3788L13.3 23.9636L11.8366 22.5021L10.425 24.0138L11.8868 25.3788ZM11.8687 25.3981L10.4545 26.8123L11.9179 28.2758L13.3305 26.7631L11.8687 25.3981ZM0 13.5294L-1.46178 12.1644L-2.78084 13.577L-1.41421 14.9436L0 13.5294ZM6.36424 6.71395L7.77846 5.29974L6.31499 3.83628L4.90247 5.34896L6.36424 6.71395ZM11.9407 12.2905L10.5265 13.7047L11.991 15.1691L13.4035 13.6545L11.9407 12.2905ZM23.4018 0L24.815 -1.41518L23.3506 -2.87764L21.9391 -1.364L23.4018 0ZM30 6.58922L31.4627 7.95322L32.7808 6.53973L31.4132 5.17404L30 6.58922ZM12.1932 25.6847L10.7799 27.0999L12.2444 28.5624L13.6559 27.0487L12.1932 25.6847ZM10.425 24.0138L10.4069 24.0331L13.3305 26.7631L13.3485 26.7438L10.425 24.0138ZM13.2829 23.9839L1.41421 12.1152L-1.41421 14.9436L10.4545 26.8123L13.2829 23.9839ZM1.46178 14.8944L7.82602 8.07895L4.90247 5.34896L-1.46178 12.1644L1.46178 14.8944ZM4.95003 8.12816L10.5265 13.7047L13.355 10.8762L7.77846 5.29974L4.95003 8.12816ZM13.4035 13.6545L24.8645 1.364L21.9391 -1.364L10.478 10.9265L13.4035 13.6545ZM21.9885 1.41518L28.5868 8.0044L31.4132 5.17404L24.815 -1.41518L21.9885 1.41518ZM28.5373 5.22523L10.7304 24.3207L13.6559 27.0487L31.4627 7.95322L28.5373 5.22523ZM13.6064 24.2696L13.3 23.9636L10.4735 26.7939L10.7799 27.0999L13.6064 24.2696Z" fill="#3E3D78" mask="url(#path-1-inside-1_10_132)"/>
</svg>
